# xmcd
#
# Track frame offsets: 
#        150
#        18805
#        39639
#        65185
#        91105
#        114192
#        128399
#        157167
#
# Disc length: 2363 seconds
#
# Revision: 0
# Processed by: cddbd v1.5.2PL0 Copyright (c) Steve Scherf et al.
# Submitted via: ExactAudioCopy v1.0b3
#
DISCID=5b093908
DTITLE=Vicki Sue Robinson - Movin On
DYEAR=1979
DGENRE=Disco
TTITLE0=Can't Accept The Fact
TTITLE1=Never Stop Loving Me
TTITLE2=Hope Your Feelings Are Like Mine
TTITLE3=What's Happening In My Life
TTITLE4=Shine Your Love On Me
TTITLE5=High On Your Love
TTITLE6=More Complete In The Nighttime
TTITLE7=Movin On
EXTD=
EXTT0=
EXTT1=
EXTT2=
EXTT3=
EXTT4=
EXTT5=
EXTT6=
EXTT7=
PLAYORDER=
